# xmcd
#
# Track frame offsets: 
#        150
#        15073
#        30779
#        50232
#        64675
#        79350
#        97420
#        116477
#        128657
#        143227
#        163918
#        179776
#
# Disc length: 2559 seconds
#
# Revision: 3
# Processed by: cddbd v1.5.2PL0 Copyright (c) Steve Scherf et al.
# Submitted via: ExactAudioCopy v0.99pb3
#
DISCID=a409fd0c
DTITLE=Bob Evans - Suburban Songbook
DYEAR=2006
DGENRE=Rock
TTITLE0=Don't You Think It's Time?
TTITLE1=Friend
TTITLE2=Nowhere Without You
TTITLE3=Sadness and Whiskey
TTITLE4=Flame
TTITLE5=Don't Walk Alone
TTITLE6=Rocks In My Head
TTITLE7=The Great Unknown
TTITLE8=Comin' Around
TTITLE9=Battle Of 2004
TTITLE10=Darlin' Won't You Come?
TTITLE11=Me and My Friend
EXTD=previous freedb was inaccurate YEAR: 2006
EXTT0=
EXTT1=
EXTT2=
EXTT3=
EXTT4=
EXTT5=
EXTT6=
EXTT7=
EXTT8=
EXTT9=
EXTT10=
EXTT11=
PLAYORDER=
